<svg width="86" height="86" viewBox="0 0 86 86" fill="none" xmlns="http://www.w3.org/2000/svg">
<g filter="url(#filter0_d_313_37)">
<rect x="28" y="26" width="30" height="30" rx="15" fill="white" shape-rendering="crispEdges"/>
<path fill-rule="evenodd" clip-rule="evenodd" d="M48.5 40.9964C48.5 41.5314 48.0665 41.9652 47.5316 41.9655L38.473 41.972C37.9357 41.9723 37.5 41.5369 37.5 40.9997C37.5 40.4627 37.9353 40.0273 38.4723 40.0273H47.5309C48.0661 40.0273 48.5 40.4612 48.5 40.9964Z" fill="#D2D7DB"/>
<path fill-rule="evenodd" clip-rule="evenodd" d="M42.9964 35.5C43.5314 35.5 43.9652 35.9335 43.9655 36.4684L43.972 45.527C43.9723 46.0643 43.5369 46.5 42.9997 46.5C42.4627 46.5 42.0273 46.0647 42.0273 45.5277V36.4691C42.0273 35.9339 42.4612 35.5 42.9964 35.5Z" fill="#D2D7DB"/>
</g>
<defs>
<filter id="filter0_d_313_37" x="0" y="0" width="86" height="86" filterUnits="userSpaceOnUse" color-interpolation-filters="sRGB">
<feFlood flood-opacity="0" result="BackgroundImageFix"/>
<feColorMatrix in="SourceAlpha" type="matrix" values="0 0 0 0 0 0 0 0 0 0 0 0 0 0 0 0 0 0 127 0" result="hardAlpha"/>
<feOffset dy="2"/>
<feGaussianBlur stdDeviation="14"/>
<feComposite in2="hardAlpha" operator="out"/>
<feColorMatrix type="matrix" values="0 0 0 0 0.627451 0 0 0 0 0.670588 0 0 0 0 0.709804 0 0 0 0.28 0"/>
<feBlend mode="normal" in2="BackgroundImageFix" result="effect1_dropShadow_313_37"/>
<feBlend mode="normal" in="SourceGraphic" in2="effect1_dropShadow_313_37" result="shape"/>
</filter>
</defs>
</svg>
