<?xml version="1.0" encoding="utf-8"?>
<!-- Generator: Adobe Illustrator 26.0.1, SVG Export Plug-In . SVG Version: 6.00 Build 0)  -->
<svg version="1.1" id="Слой_1" xmlns="http://www.w3.org/2000/svg" xmlns:xlink="http://www.w3.org/1999/xlink" x="0px" y="0px"
	 viewBox="0 0 599.1 127.2" style="enable-background:new 0 0 599.1 127.2;" xml:space="preserve">
<style type="text/css">
	.st0{clip-path:url(#SVGID_00000078012604186927146000000015415654929125285273_);fill:#D4D2C9;}
	
		.st1{clip-path:url(#SVGID_00000069398787599696215640000011110982259242105507_);fill:url(#SVGID_00000167386808974080903120000006385626628518480037_);}
	.st2{clip-path:url(#SVGID_00000125569140200496164450000006290626347187557801_);}
	.st3{clip-path:url(#SVGID_00000060737961443990878320000000273163259907417744_);fill:#339DCC;}
	.st4{clip-path:url(#SVGID_00000168096387949545720610000006874614802992029327_);}
	.st5{fill:#FFFFFF;}
	.st6{clip-path:url(#SVGID_00000075137763481042545650000013339361083556066997_);fill:#FBB928;}
	.st7{clip-path:url(#SVGID_00000134207607592879084180000016981093307758892163_);}
	.st8{clip-path:url(#SVGID_00000150808597051163804920000003342969523078699906_);fill:#76B94C;}
	.st9{clip-path:url(#SVGID_00000016045754884276013430000014697573115746738855_);}
	.st10{clip-path:url(#SVGID_00000111183959674799813690000004064123089962346939_);fill:#EE7265;}
	.st11{clip-path:url(#SVGID_00000114052217543685754580000000462890698279846306_);}
	.st12{clip-path:url(#SVGID_00000047040613106684855420000009837959268207987609_);fill:#D4D2C9;}
</style>
<g>
	<g>
		<g>
			<g>
				<defs>
					<path id="SVGID_1_" d="M166.9,86.5c0,1.2,0,2.4,0,3.7c0,1,0,2.1-0.1,3.1c-0.1,2.2-0.2,4.5-0.6,6.7c-0.4,2.3-1.1,4.4-2.2,6.4
						c-1.1,2-2.4,3.9-4.1,5.4c-1.6,1.6-3.5,2.9-5.6,4c-2.1,1-4.3,1.7-6.6,2.1c-2.3,0.4-4.6,0.5-6.9,0.6c-1.1,0-2.1,0-3.2,0
						c-1.3,0-2.5,0-3.8,0h-1.1H51.4H36.9c-1.3,0-2.5,0-3.8,0c-1.1,0-2.1,0-3.2,0c-2.3-0.1-4.7-0.2-6.9-0.6c-2.3-0.4-4.5-1.1-6.6-2.1
						c-2.1-1-4-2.4-5.6-4c-1.6-1.6-3-3.4-4.1-5.4c-1.1-2-1.8-4.1-2.2-6.4c-0.4-2.2-0.5-4.5-0.6-6.7c0-1,0-2.1-0.1-3.1
						c0-1.2,0-2.4,0-3.7V72.4v-43v-9c0-0.8,0-1.6,0-2.3c0-0.7,0-1.3,0-2c0-1.4,0.1-2.9,0.4-4.3C4.6,10.4,5,9.1,5.7,7.8
						c0.7-1.3,1.6-2.5,2.6-3.5c1.1-1,2.3-1.9,3.6-2.5c1.3-0.7,2.7-1.1,4.2-1.4c1.5-0.3,3-0.3,4.4-0.4c0.7,0,1.4,0,2,0
						c0.8,0,1.6,0,2.4,0h9.3h111l-8.6,0l9.3,0c0.8,0,1.6,0,2.4,0c0.7,0,1.4,0,2,0c1.5,0,3,0.1,4.4,0.4c1.5,0.3,2.9,0.7,4.2,1.3
						c1.3,0.7,2.5,1.5,3.6,2.5c1.1,1,1.9,2.2,2.6,3.5c0.7,1.3,1.1,2.6,1.4,4.1c0.3,1.4,0.4,2.9,0.4,4.3c0,0.7,0,1.3,0,2
						c0,0.8,0,1.6,0,2.3v9v43L166.9,86.5z"/>
				</defs>
				<clipPath id="SVGID_00000099648738951291080090000016632596545871566264_">
					<use xlink:href="#SVGID_1_"  style="overflow:visible;"/>
				</clipPath>
				
					<path id="wallet_back_2_" style="clip-path:url(#SVGID_00000099648738951291080090000016632596545871566264_);fill:#D4D2C9;" d="
					M166.9,15.4v103.1H3.9V15.3l0,0c0-8.7,6.9-15.1,15.4-15.1l0,0h132.3l0,0l0,0c8.5,0,15.4,6.3,15.4,15.1
					C166.9,15.3,166.9,15.4,166.9,15.4z"/>
			</g>
			<g>
				<defs>
					<path id="SVGID_00000086663873811233276660000016024272549764607400_" d="M166.9,86.5c0,1.2,0,2.4,0,3.7c0,1,0,2.1-0.1,3.1
						c-0.1,2.2-0.2,4.5-0.6,6.7c-0.4,2.3-1.1,4.4-2.2,6.4c-1.1,2-2.4,3.9-4.1,5.4c-1.6,1.6-3.5,2.9-5.6,4c-2.1,1-4.3,1.7-6.6,2.1
						c-2.3,0.4-4.6,0.5-6.9,0.6c-1.1,0-2.1,0-3.2,0c-1.3,0-2.5,0-3.8,0h-1.1H51.4H36.9c-1.3,0-2.5,0-3.8,0c-1.1,0-2.1,0-3.2,0
						c-2.3-0.1-4.7-0.2-6.9-0.6c-2.3-0.4-4.5-1.1-6.6-2.1c-2.1-1-4-2.4-5.6-4c-1.6-1.6-3-3.4-4.1-5.4c-1.1-2-1.8-4.1-2.2-6.4
						c-0.4-2.2-0.5-4.5-0.6-6.7c0-1,0-2.1-0.1-3.1c0-1.2,0-2.4,0-3.7V72.4v-43v-9c0-0.8,0-1.6,0-2.3c0-0.7,0-1.3,0-2
						c0-1.4,0.1-2.9,0.4-4.3C4.6,10.4,5,9.1,5.7,7.8c0.7-1.3,1.6-2.5,2.6-3.5c1.1-1,2.3-1.9,3.6-2.5c1.3-0.7,2.7-1.1,4.2-1.4
						c1.5-0.3,3-0.3,4.4-0.4c0.7,0,1.4,0,2,0c0.8,0,1.6,0,2.4,0h9.3h111l-8.6,0l9.3,0c0.8,0,1.6,0,2.4,0c0.7,0,1.4,0,2,0
						c1.5,0,3,0.1,4.4,0.4c1.5,0.3,2.9,0.7,4.2,1.3c1.3,0.7,2.5,1.5,3.6,2.5c1.1,1,1.9,2.2,2.6,3.5c0.7,1.3,1.1,2.6,1.4,4.1
						c0.3,1.4,0.4,2.9,0.4,4.3c0,0.7,0,1.3,0,2c0,0.8,0,1.6,0,2.3v9v43L166.9,86.5z"/>
				</defs>
				<clipPath id="SVGID_00000021821863628978738480000003408841764343213999_">
					<use xlink:href="#SVGID_00000086663873811233276660000016024272549764607400_"  style="overflow:visible;"/>
				</clipPath>
				
					<linearGradient id="SVGID_00000063612579840660638830000009383496114652966314_" gradientUnits="userSpaceOnUse" x1="85.4057" y1="243.1388" x2="85.4057" y2="231.2079" gradientTransform="matrix(1 0 0 -1 0 298.7183)">
					<stop  offset="3.800000e-03" style="stop-color:#D4D2C9"/>
					<stop  offset="0.2318" style="stop-color:#C5C3BC"/>
					<stop  offset="0.6887" style="stop-color:#A6A69F"/>
					<stop  offset="1" style="stop-color:#8C8D88"/>
				</linearGradient>
				
					<rect x="3.9" y="55.6" style="clip-path:url(#SVGID_00000021821863628978738480000003408841764343213999_);fill:url(#SVGID_00000063612579840660638830000009383496114652966314_);" width="163.1" height="11.9"/>
			</g>
			<g>
				<defs>
					<path id="SVGID_00000024695167351835058070000008545501870213884342_" d="M166.9,86.5c0,1.2,0,2.4,0,3.7c0,1,0,2.1-0.1,3.1
						c-0.1,2.2-0.2,4.5-0.6,6.7c-0.4,2.3-1.1,4.4-2.2,6.4c-1.1,2-2.4,3.9-4.1,5.4c-1.6,1.6-3.5,2.9-5.6,4c-2.1,1-4.3,1.7-6.6,2.1
						c-2.3,0.4-4.6,0.5-6.9,0.6c-1.1,0-2.1,0-3.2,0c-1.3,0-2.5,0-3.8,0h-1.1H51.4H36.9c-1.3,0-2.5,0-3.8,0c-1.1,0-2.1,0-3.2,0
						c-2.3-0.1-4.7-0.2-6.9-0.6c-2.3-0.4-4.5-1.1-6.6-2.1c-2.1-1-4-2.4-5.6-4c-1.6-1.6-3-3.4-4.1-5.4c-1.1-2-1.8-4.1-2.2-6.4
						c-0.4-2.2-0.5-4.5-0.6-6.7c0-1,0-2.1-0.1-3.1c0-1.2,0-2.4,0-3.7V72.4v-43v-9c0-0.8,0-1.6,0-2.3c0-0.7,0-1.3,0-2
						c0-1.4,0.1-2.9,0.4-4.3C4.6,10.4,5,9.1,5.7,7.8c0.7-1.3,1.6-2.5,2.6-3.5c1.1-1,2.3-1.9,3.6-2.5c1.3-0.7,2.7-1.1,4.2-1.4
						c1.5-0.3,3-0.3,4.4-0.4c0.7,0,1.4,0,2,0c0.8,0,1.6,0,2.4,0h9.3h111l-8.6,0l9.3,0c0.8,0,1.6,0,2.4,0c0.7,0,1.4,0,2,0
						c1.5,0,3,0.1,4.4,0.4c1.5,0.3,2.9,0.7,4.2,1.3c1.3,0.7,2.5,1.5,3.6,2.5c1.1,1,1.9,2.2,2.6,3.5c0.7,1.3,1.1,2.6,1.4,4.1
						c0.3,1.4,0.4,2.9,0.4,4.3c0,0.7,0,1.3,0,2c0,0.8,0,1.6,0,2.3v9v43L166.9,86.5z"/>
				</defs>
				<clipPath id="SVGID_00000008148778433970506470000008275270494934912128_">
					<use xlink:href="#SVGID_00000024695167351835058070000008545501870213884342_"  style="overflow:visible;"/>
				</clipPath>
				<g style="clip-path:url(#SVGID_00000008148778433970506470000008275270494934912128_);">
					<g>
						<defs>
							<path id="SVGID_00000039097795571557787240000012455011274147462052_" d="M10.7,82.4V25.7V20c0-0.5,0-1,0-1.5
								c0-0.4,0-0.8,0-1.3c0-0.9,0.1-1.8,0.2-2.8c0.2-0.9,0.4-1.8,0.9-2.6c0.4-0.8,1-1.6,1.7-2.2c0.7-0.7,1.4-1.2,2.3-1.6
								c0.9-0.4,1.7-0.7,2.7-0.9c0.9-0.2,1.9-0.2,2.8-0.2c0.4,0,0.9,0,1.3,0c0.5,0,1,0,1.5,0h5.9h116.4h-5.4h5.9c0.5,0,1,0,1.5,0
								c0.4,0,0.9,0,1.3,0c0.9,0,1.9,0.1,2.8,0.2c0.9,0.2,1.8,0.4,2.7,0.9c0.8,0.4,1.6,1,2.3,1.6c0.7,0.7,1.2,1.4,1.7,2.2
								c0.4,0.8,0.7,1.7,0.9,2.6c0.2,0.9,0.2,1.8,0.2,2.8c0,0.4,0,0.8,0,1.3c0,0.5,0,1,0,1.5v5.8v56.6L10.7,82.4L10.7,82.4z"/>
						</defs>
						<clipPath id="SVGID_00000080929071908153517690000004906886080961730971_">
							<use xlink:href="#SVGID_00000039097795571557787240000012455011274147462052_"  style="overflow:visible;"/>
						</clipPath>
						<path id="blue_4_" style="clip-path:url(#SVGID_00000080929071908153517690000004906886080961730971_);fill:#339DCC;" d="
							M10.7,82.4V25.7V20c0-0.5,0-1,0-1.5c0-0.4,0-0.8,0-1.3c0-0.9,0.1-1.8,0.2-2.8c0.2-0.9,0.4-1.8,0.9-2.6c0.4-0.8,1-1.6,1.7-2.2
							c0.7-0.7,1.4-1.2,2.3-1.6c0.9-0.4,1.7-0.7,2.7-0.9c0.9-0.2,1.9-0.2,2.8-0.2c0.4,0,0.9,0,1.3,0c0.5,0,1,0,1.5,0h5.9h116.4h-5.4
							h5.9c0.5,0,1,0,1.5,0c0.4,0,0.9,0,1.3,0c0.9,0,1.9,0.1,2.8,0.2c0.9,0.2,1.8,0.4,2.7,0.9c0.8,0.4,1.6,1,2.3,1.6
							c0.7,0.7,1.2,1.4,1.7,2.2c0.4,0.8,0.7,1.7,0.9,2.6c0.2,0.9,0.2,1.8,0.2,2.8c0,0.4,0,0.8,0,1.3c0,0.5,0,1,0,1.5v5.8v56.6
							L10.7,82.4L10.7,82.4z"/>
					</g>
					<g>
						<defs>
							<path id="SVGID_00000008834472067174899910000004185367721368579748_" d="M10.7,82.4V25.7V20c0-0.5,0-1,0-1.5
								c0-0.4,0-0.8,0-1.3c0-0.9,0.1-1.8,0.2-2.8c0.2-0.9,0.4-1.8,0.9-2.6c0.4-0.8,1-1.6,1.7-2.2c0.7-0.7,1.4-1.2,2.3-1.6
								c0.9-0.4,1.7-0.7,2.7-0.9c0.9-0.2,1.9-0.2,2.8-0.2c0.4,0,0.9,0,1.3,0c0.5,0,1,0,1.5,0h5.9h116.4h-5.4h5.9c0.5,0,1,0,1.5,0
								c0.4,0,0.9,0,1.3,0c0.9,0,1.9,0.1,2.8,0.2c0.9,0.2,1.8,0.4,2.7,0.9c0.8,0.4,1.6,1,2.3,1.6c0.7,0.7,1.2,1.4,1.7,2.2
								c0.4,0.8,0.7,1.7,0.9,2.6c0.2,0.9,0.2,1.8,0.2,2.8c0,0.4,0,0.8,0,1.3c0,0.5,0,1,0,1.5v5.8v56.6L10.7,82.4L10.7,82.4z"/>
						</defs>
						<clipPath id="SVGID_00000122001656904637658730000014005317919101886608_">
							<use xlink:href="#SVGID_00000008834472067174899910000004185367721368579748_"  style="overflow:visible;"/>
						</clipPath>
						<g id="yellow_shdw" style="clip-path:url(#SVGID_00000122001656904637658730000014005317919101886608_);">
							
								<image style="overflow:visible;opacity:0.17;enable-background:new    ;" width="181" height="106" xlink:href="22C5817A.png"  transform="matrix(0.9359 0 0 0.9185 0.8262 6.6189)">
							</image>
							<g>
								<g>
									<path class="st5" d="M10.7,95.7V39v-5.8c0-0.5,0-1,0-1.5c0-0.4,0-0.8,0-1.3c0-0.9,0.1-1.8,0.2-2.8c0.2-0.9,0.4-1.8,0.9-2.6
										c0.4-0.8,1-1.6,1.7-2.2c0.7-0.7,1.4-1.2,2.3-1.6c0.9-0.4,1.7-0.7,2.7-0.9c0.9-0.2,1.9-0.2,2.8-0.2c0.4,0,0.9,0,1.3,0
										c0.5,0,1,0,1.5,0h5.9h116.4h-5.4h5.9c0.5,0,1,0,1.5,0c0.4,0,0.9,0,1.3,0c0.9,0,1.9,0.1,2.8,0.2c0.9,0.2,1.8,0.4,2.7,0.9
										c0.8,0.4,1.6,1,2.3,1.6c0.7,0.7,1.2,1.4,1.7,2.2c0.4,0.8,0.7,1.7,0.9,2.6c0.2,0.9,0.2,1.8,0.2,2.8c0,0.4,0,0.8,0,1.3
										c0,0.5,0,1,0,1.5V39v56.6H10.7z"/>
								</g>
							</g>
						</g>
					</g>
					<g>
						<defs>
							<path id="SVGID_00000037676264375710354890000017178719909861453981_" d="M10.7,82.4V25.7V20c0-0.5,0-1,0-1.5
								c0-0.4,0-0.8,0-1.3c0-0.9,0.1-1.8,0.2-2.8c0.2-0.9,0.4-1.8,0.9-2.6c0.4-0.8,1-1.6,1.7-2.2c0.7-0.7,1.4-1.2,2.3-1.6
								c0.9-0.4,1.7-0.7,2.7-0.9c0.9-0.2,1.9-0.2,2.8-0.2c0.4,0,0.9,0,1.3,0c0.5,0,1,0,1.5,0h5.9h116.4h-5.4h5.9c0.5,0,1,0,1.5,0
								c0.4,0,0.9,0,1.3,0c0.9,0,1.9,0.1,2.8,0.2c0.9,0.2,1.8,0.4,2.7,0.9c0.8,0.4,1.6,1,2.3,1.6c0.7,0.7,1.2,1.4,1.7,2.2
								c0.4,0.8,0.7,1.7,0.9,2.6c0.2,0.9,0.2,1.8,0.2,2.8c0,0.4,0,0.8,0,1.3c0,0.5,0,1,0,1.5v5.8v56.6L10.7,82.4L10.7,82.4z"/>
						</defs>
						<clipPath id="SVGID_00000163763085698228725950000009144301862007784379_">
							<use xlink:href="#SVGID_00000037676264375710354890000017178719909861453981_"  style="overflow:visible;"/>
						</clipPath>
						<path id="yellow_5_" style="clip-path:url(#SVGID_00000163763085698228725950000009144301862007784379_);fill:#FBB928;" d="
							M10.7,95.7V39v-5.8c0-0.5,0-1,0-1.5c0-0.4,0-0.8,0-1.3c0-0.9,0.1-1.8,0.2-2.8c0.2-0.9,0.4-1.8,0.9-2.6c0.4-0.8,1-1.6,1.7-2.2
							c0.7-0.7,1.4-1.2,2.3-1.6c0.9-0.4,1.7-0.7,2.7-0.9c0.9-0.2,1.9-0.2,2.8-0.2c0.4,0,0.9,0,1.3,0c0.5,0,1,0,1.5,0h5.9h116.4h-5.4
							h5.9c0.5,0,1,0,1.5,0c0.4,0,0.9,0,1.3,0c0.9,0,1.9,0.1,2.8,0.2c0.9,0.2,1.8,0.4,2.7,0.9c0.8,0.4,1.6,1,2.3,1.6
							c0.7,0.7,1.2,1.4,1.7,2.2c0.4,0.8,0.7,1.7,0.9,2.6c0.2,0.9,0.2,1.8,0.2,2.8c0,0.4,0,0.8,0,1.3c0,0.5,0,1,0,1.5V39v56.6H10.7z"
							/>
					</g>
					<g>
						<defs>
							<path id="SVGID_00000022552996283761240140000017624936710527959716_" d="M10.7,82.4V25.7V20c0-0.5,0-1,0-1.5
								c0-0.4,0-0.8,0-1.3c0-0.9,0.1-1.8,0.2-2.8c0.2-0.9,0.4-1.8,0.9-2.6c0.4-0.8,1-1.6,1.7-2.2c0.7-0.7,1.4-1.2,2.3-1.6
								c0.9-0.4,1.7-0.7,2.7-0.9c0.9-0.2,1.9-0.2,2.8-0.2c0.4,0,0.9,0,1.3,0c0.5,0,1,0,1.5,0h5.9h116.4h-5.4h5.9c0.5,0,1,0,1.5,0
								c0.4,0,0.9,0,1.3,0c0.9,0,1.9,0.1,2.8,0.2c0.9,0.2,1.8,0.4,2.7,0.9c0.8,0.4,1.6,1,2.3,1.6c0.7,0.7,1.2,1.4,1.7,2.2
								c0.4,0.8,0.7,1.7,0.9,2.6c0.2,0.9,0.2,1.8,0.2,2.8c0,0.4,0,0.8,0,1.3c0,0.5,0,1,0,1.5v5.8v56.6L10.7,82.4L10.7,82.4z"/>
						</defs>
						<clipPath id="SVGID_00000036969005992282572310000002101758824311904939_">
							<use xlink:href="#SVGID_00000022552996283761240140000017624936710527959716_"  style="overflow:visible;"/>
						</clipPath>
						<g id="green_shdw" style="clip-path:url(#SVGID_00000036969005992282572310000002101758824311904939_);">
							
								<image style="overflow:visible;opacity:0.16;enable-background:new    ;" width="181" height="106" xlink:href="22C5817E.png"  transform="matrix(0.9359 0 0 0.9185 0.9784 20.4252)">
							</image>
							<g>
								<g>
									<path class="st5" d="M10.7,109V52.4v-5.8c0-0.5,0-1,0-1.5c0-0.4,0-0.8,0-1.3c0-0.9,0.1-1.8,0.2-2.8
										c0.2-0.9,0.4-1.8,0.9-2.6c0.4-0.8,1-1.6,1.7-2.2c0.7-0.7,1.4-1.2,2.3-1.6c0.9-0.4,1.7-0.7,2.7-0.9c0.9-0.2,1.9-0.2,2.8-0.2
										c0.4,0,0.9,0,1.3,0c0.5,0,1,0,1.5,0h5.9h116.4h-5.4h5.9c0.5,0,1,0,1.5,0c0.4,0,0.9,0,1.3,0c0.9,0,1.9,0.1,2.8,0.2
										c0.9,0.2,1.8,0.4,2.7,0.9c0.8,0.4,1.6,1,2.3,1.6c0.7,0.7,1.2,1.4,1.7,2.2c0.4,0.8,0.7,1.7,0.9,2.6c0.2,0.9,0.2,1.8,0.2,2.8
										c0,0.4,0,0.8,0,1.3c0,0.5,0,1,0,1.5v5.8V109H10.7z"/>
								</g>
							</g>
						</g>
					</g>
					<g>
						<defs>
							<path id="SVGID_00000063597362309720293510000018409659817847062699_" d="M10.7,82.4V25.7V20c0-0.5,0-1,0-1.5
								c0-0.4,0-0.8,0-1.3c0-0.9,0.1-1.8,0.2-2.8c0.2-0.9,0.4-1.8,0.9-2.6c0.4-0.8,1-1.6,1.7-2.2c0.7-0.7,1.4-1.2,2.3-1.6
								c0.9-0.4,1.7-0.7,2.7-0.9c0.9-0.2,1.9-0.2,2.8-0.2c0.4,0,0.9,0,1.3,0c0.5,0,1,0,1.5,0h5.9h116.4h-5.4h5.9c0.5,0,1,0,1.5,0
								c0.4,0,0.9,0,1.3,0c0.9,0,1.9,0.1,2.8,0.2c0.9,0.2,1.8,0.4,2.7,0.9c0.8,0.4,1.6,1,2.3,1.6c0.7,0.7,1.2,1.4,1.7,2.2
								c0.4,0.8,0.7,1.7,0.9,2.6c0.2,0.9,0.2,1.8,0.2,2.8c0,0.4,0,0.8,0,1.3c0,0.5,0,1,0,1.5v5.8v56.6L10.7,82.4L10.7,82.4z"/>
						</defs>
						<clipPath id="SVGID_00000093147545305000278360000002458732425446491808_">
							<use xlink:href="#SVGID_00000063597362309720293510000018409659817847062699_"  style="overflow:visible;"/>
						</clipPath>
						<path id="green_5_" style="clip-path:url(#SVGID_00000093147545305000278360000002458732425446491808_);fill:#76B94C;" d="
							M10.7,109V52.4v-5.8c0-0.5,0-1,0-1.5c0-0.4,0-0.8,0-1.3c0-0.9,0.1-1.8,0.2-2.8c0.2-0.9,0.4-1.8,0.9-2.6c0.4-0.8,1-1.6,1.7-2.2
							c0.7-0.7,1.4-1.2,2.3-1.6c0.9-0.4,1.7-0.7,2.7-0.9c0.9-0.2,1.9-0.2,2.8-0.2c0.4,0,0.9,0,1.3,0c0.5,0,1,0,1.5,0h5.9h116.4h-5.4
							h5.9c0.5,0,1,0,1.5,0c0.4,0,0.9,0,1.3,0c0.9,0,1.9,0.1,2.8,0.2c0.9,0.2,1.8,0.4,2.7,0.9c0.8,0.4,1.6,1,2.3,1.6
							c0.7,0.7,1.2,1.4,1.7,2.2c0.4,0.8,0.7,1.7,0.9,2.6c0.2,0.9,0.2,1.8,0.2,2.8c0,0.4,0,0.8,0,1.3c0,0.5,0,1,0,1.5v5.8V109H10.7z"
							/>
					</g>
					<g>
						<defs>
							<path id="SVGID_00000129198107928441686180000009778497028497143424_" d="M10.7,82.4V25.7V20c0-0.5,0-1,0-1.5
								c0-0.4,0-0.8,0-1.3c0-0.9,0.1-1.8,0.2-2.8c0.2-0.9,0.4-1.8,0.9-2.6c0.4-0.8,1-1.6,1.7-2.2c0.7-0.7,1.4-1.2,2.3-1.6
								c0.9-0.4,1.7-0.7,2.7-0.9c0.9-0.2,1.9-0.2,2.8-0.2c0.4,0,0.9,0,1.3,0c0.5,0,1,0,1.5,0h5.9h116.4h-5.4h5.9c0.5,0,1,0,1.5,0
								c0.4,0,0.9,0,1.3,0c0.9,0,1.9,0.1,2.8,0.2c0.9,0.2,1.8,0.4,2.7,0.9c0.8,0.4,1.6,1,2.3,1.6c0.7,0.7,1.2,1.4,1.7,2.2
								c0.4,0.8,0.7,1.7,0.9,2.6c0.2,0.9,0.2,1.8,0.2,2.8c0,0.4,0,0.8,0,1.3c0,0.5,0,1,0,1.5v5.8v56.6L10.7,82.4L10.7,82.4z"/>
						</defs>
						<clipPath id="SVGID_00000055695070600570499970000014933590599859805374_">
							<use xlink:href="#SVGID_00000129198107928441686180000009778497028497143424_"  style="overflow:visible;"/>
						</clipPath>
						<g id="red_shdw" style="clip-path:url(#SVGID_00000055695070600570499970000014933590599859805374_);">
							
								<image style="overflow:visible;opacity:0.17;enable-background:new    ;" width="181" height="88" xlink:href="22C58179.png"  transform="matrix(0.9467 0 0 0.9292 0 34.6664)">
							</image>
							<g>
								<g>
									<path class="st5" d="M10.7,109V65.7v-5.8c0-0.5,0-1,0-1.5c0-0.4,0-0.8,0-1.3c0-0.9,0.1-1.8,0.2-2.8
										c0.2-0.9,0.4-1.8,0.9-2.6c0.4-0.8,1-1.6,1.7-2.2c0.7-0.7,1.4-1.2,2.3-1.6c0.9-0.4,1.7-0.7,2.7-0.9c0.9-0.2,1.9-0.2,2.8-0.2
										c0.4,0,0.9,0,1.3,0c0.5,0,1,0,1.5,0h5.9h116.4h-5.4h5.9c0.5,0,1,0,1.5,0c0.4,0,0.9,0,1.3,0c0.9,0,1.9,0.1,2.8,0.2
										c0.9,0.2,1.8,0.4,2.7,0.9c0.8,0.4,1.6,1,2.3,1.6c0.7,0.7,1.2,1.4,1.7,2.2c0.4,0.8,0.7,1.7,0.9,2.6c0.2,0.9,0.2,1.8,0.2,2.8
										c0,0.4,0,0.8,0,1.3c0,0.5,0,1,0,1.5v5.8V109H10.7z"/>
								</g>
							</g>
						</g>
					</g>
					<g>
						<defs>
							<path id="SVGID_00000134219364715351655510000009478480241731407038_" d="M10.7,82.4V25.7V20c0-0.5,0-1,0-1.5
								c0-0.4,0-0.8,0-1.3c0-0.9,0.1-1.8,0.2-2.8c0.2-0.9,0.4-1.8,0.9-2.6c0.4-0.8,1-1.6,1.7-2.2c0.7-0.7,1.4-1.2,2.3-1.6
								c0.9-0.4,1.7-0.7,2.7-0.9c0.9-0.2,1.9-0.2,2.8-0.2c0.4,0,0.9,0,1.3,0c0.5,0,1,0,1.5,0h5.9h116.4h-5.4h5.9c0.5,0,1,0,1.5,0
								c0.4,0,0.9,0,1.3,0c0.9,0,1.9,0.1,2.8,0.2c0.9,0.2,1.8,0.4,2.7,0.9c0.8,0.4,1.6,1,2.3,1.6c0.7,0.7,1.2,1.4,1.7,2.2
								c0.4,0.8,0.7,1.7,0.9,2.6c0.2,0.9,0.2,1.8,0.2,2.8c0,0.4,0,0.8,0,1.3c0,0.5,0,1,0,1.5v5.8v56.6L10.7,82.4L10.7,82.4z"/>
						</defs>
						<clipPath id="SVGID_00000026146469087324329480000014560450383135162276_">
							<use xlink:href="#SVGID_00000134219364715351655510000009478480241731407038_"  style="overflow:visible;"/>
						</clipPath>
						<path id="red_5_" style="clip-path:url(#SVGID_00000026146469087324329480000014560450383135162276_);fill:#EE7265;" d="
							M10.7,109V65.7v-5.8c0-0.5,0-1,0-1.5c0-0.4,0-0.8,0-1.3c0-0.9,0.1-1.8,0.2-2.8c0.2-0.9,0.4-1.8,0.9-2.6c0.4-0.8,1-1.6,1.7-2.2
							c0.7-0.7,1.4-1.2,2.3-1.6c0.9-0.4,1.7-0.7,2.7-0.9c0.9-0.2,1.9-0.2,2.8-0.2c0.4,0,0.9,0,1.3,0c0.5,0,1,0,1.5,0h5.9h116.4h-5.4
							h5.9c0.5,0,1,0,1.5,0c0.4,0,0.9,0,1.3,0c0.9,0,1.9,0.1,2.8,0.2c0.9,0.2,1.8,0.4,2.7,0.9c0.8,0.4,1.6,1,2.3,1.6
							c0.7,0.7,1.2,1.4,1.7,2.2c0.4,0.8,0.7,1.7,0.9,2.6c0.2,0.9,0.2,1.8,0.2,2.8c0,0.4,0,0.8,0,1.3c0,0.5,0,1,0,1.5v5.8V109H10.7z"
							/>
					</g>
				</g>
			</g>
			<g>
				<defs>
					<path id="SVGID_00000021108305929907918830000000922767571464376987_" d="M166.9,86.5c0,1.2,0,2.4,0,3.7c0,1,0,2.1-0.1,3.1
						c-0.1,2.2-0.2,4.5-0.6,6.7c-0.4,2.3-1.1,4.4-2.2,6.4c-1.1,2-2.4,3.9-4.1,5.4c-1.6,1.6-3.5,2.9-5.6,4c-2.1,1-4.3,1.7-6.6,2.1
						c-2.3,0.4-4.6,0.5-6.9,0.6c-1.1,0-2.1,0-3.2,0c-1.3,0-2.5,0-3.8,0h-1.1H51.4H36.9c-1.3,0-2.5,0-3.8,0c-1.1,0-2.1,0-3.2,0
						c-2.3-0.1-4.7-0.2-6.9-0.6c-2.3-0.4-4.5-1.1-6.6-2.1c-2.1-1-4-2.4-5.6-4c-1.6-1.6-3-3.4-4.1-5.4c-1.1-2-1.8-4.1-2.2-6.4
						c-0.4-2.2-0.5-4.5-0.6-6.7c0-1,0-2.1-0.1-3.1c0-1.2,0-2.4,0-3.7V72.4v-43v-9c0-0.8,0-1.6,0-2.3c0-0.7,0-1.3,0-2
						c0-1.4,0.1-2.9,0.4-4.3C4.6,10.4,5,9.1,5.7,7.8c0.7-1.3,1.6-2.5,2.6-3.5c1.1-1,2.3-1.9,3.6-2.5c1.3-0.7,2.7-1.1,4.2-1.4
						c1.5-0.3,3-0.3,4.4-0.4c0.7,0,1.4,0,2,0c0.8,0,1.6,0,2.4,0h9.3h111l-8.6,0l9.3,0c0.8,0,1.6,0,2.4,0c0.7,0,1.4,0,2,0
						c1.5,0,3,0.1,4.4,0.4c1.5,0.3,2.9,0.7,4.2,1.3c1.3,0.7,2.5,1.5,3.6,2.5c1.1,1,1.9,2.2,2.6,3.5c0.7,1.3,1.1,2.6,1.4,4.1
						c0.3,1.4,0.4,2.9,0.4,4.3c0,0.7,0,1.3,0,2c0,0.8,0,1.6,0,2.3v9v43L166.9,86.5z"/>
				</defs>
				<clipPath id="SVGID_00000010310404411842988800000002592990069197793420_">
					<use xlink:href="#SVGID_00000021108305929907918830000000922767571464376987_"  style="overflow:visible;"/>
				</clipPath>
				<g id="wallet_pocket_shdw" style="clip-path:url(#SVGID_00000010310404411842988800000002592990069197793420_);">
					
						<image style="overflow:visible;opacity:0.12;enable-background:new    ;" width="188" height="88" xlink:href="22C5817B.png"  transform="matrix(0.8996 0 0 0.8829 0.9788 49.5396)">
					</image>
					<g>
						<g>
							<path class="st5" d="M166.9,120.1H3.9v-60h39.6c1,0,1.9,0,2.9,0c0.8,0,1.6,0,2.5,0c1.8,0,3.6,0.1,5.3,0.5
								c1.8,0.3,3.5,0.8,5.1,1.6c-0.3-0.2,4.5,1.8,8.7,8.2c3.1,4.7,9,9.6,17.3,9.6s14.3-4.9,17.3-9.6c4-6.1,8.5-8.1,8.7-8.2
								c1.6-0.8,3.3-1.3,5.1-1.6c1.8-0.3,3.6-0.4,5.3-0.5c0.8,0,1.6,0,2.5,0c1,0,1.9,0,2.9,0h39.8L166.9,120.1L166.9,120.1z"/>
						</g>
					</g>
				</g>
			</g>
			<g>
				<defs>
					<path id="SVGID_00000083079559498252304410000004072159721342688414_" d="M166.9,86.5c0,1.2,0,2.4,0,3.7c0,1,0,2.1-0.1,3.1
						c-0.1,2.2-0.2,4.5-0.6,6.7c-0.4,2.3-1.1,4.4-2.2,6.4c-1.1,2-2.4,3.9-4.1,5.4c-1.6,1.6-3.5,2.9-5.6,4c-2.1,1-4.3,1.7-6.6,2.1
						c-2.3,0.4-4.6,0.5-6.9,0.6c-1.1,0-2.1,0-3.2,0c-1.3,0-2.5,0-3.8,0h-1.1H51.4H36.9c-1.3,0-2.5,0-3.8,0c-1.1,0-2.1,0-3.2,0
						c-2.3-0.1-4.7-0.2-6.9-0.6c-2.3-0.4-4.5-1.1-6.6-2.1c-2.1-1-4-2.4-5.6-4c-1.6-1.6-3-3.4-4.1-5.4c-1.1-2-1.8-4.1-2.2-6.4
						c-0.4-2.2-0.5-4.5-0.6-6.7c0-1,0-2.1-0.1-3.1c0-1.2,0-2.4,0-3.7V72.4v-43v-9c0-0.8,0-1.6,0-2.3c0-0.7,0-1.3,0-2
						c0-1.4,0.1-2.9,0.4-4.3C4.6,10.4,5,9.1,5.7,7.8c0.7-1.3,1.6-2.5,2.6-3.5c1.1-1,2.3-1.9,3.6-2.5c1.3-0.7,2.7-1.1,4.2-1.4
						c1.5-0.3,3-0.3,4.4-0.4c0.7,0,1.4,0,2,0c0.8,0,1.6,0,2.4,0h9.3h111l-8.6,0l9.3,0c0.8,0,1.6,0,2.4,0c0.7,0,1.4,0,2,0
						c1.5,0,3,0.1,4.4,0.4c1.5,0.3,2.9,0.7,4.2,1.3c1.3,0.7,2.5,1.5,3.6,2.5c1.1,1,1.9,2.2,2.6,3.5c0.7,1.3,1.1,2.6,1.4,4.1
						c0.3,1.4,0.4,2.9,0.4,4.3c0,0.7,0,1.3,0,2c0,0.8,0,1.6,0,2.3v9v43L166.9,86.5z"/>
				</defs>
				<clipPath id="SVGID_00000083077547869790016760000014043823675505290391_">
					<use xlink:href="#SVGID_00000083079559498252304410000004072159721342688414_"  style="overflow:visible;"/>
				</clipPath>
				
					<path id="wallet_pocket_1_" style="clip-path:url(#SVGID_00000083077547869790016760000014043823675505290391_);fill:#D4D2C9;" d="
					M166.9,120.1H3.9v-60h39.6c1,0,1.9,0,2.9,0c0.8,0,1.6,0,2.5,0c1.8,0,3.6,0.1,5.3,0.5c1.8,0.3,3.5,0.8,5.1,1.6
					c-0.3-0.2,4.5,1.8,8.7,8.2c3.1,4.7,9,9.6,17.3,9.6s14.3-4.9,17.3-9.6c4-6.1,8.5-8.1,8.7-8.2c1.6-0.8,3.3-1.3,5.1-1.6
					c1.8-0.3,3.6-0.4,5.3-0.5c0.8,0,1.6,0,2.5,0c1,0,1.9,0,2.9,0h39.8L166.9,120.1L166.9,120.1z"/>
			</g>
		</g>
	</g>
	<path class="st5" d="M230.2,98.7h-20.1l-5.1,14.2h-6.6l18.6-49.6h6.2l18.6,49.6h-6.6L230.2,98.7z M212,93.4h16.4l-8.1-22.6h-0.2
		L212,93.4z M282.8,94.3c0,11.3-6.5,18.9-16,18.9c-5.4,0-9.7-2.3-12-6.4h-0.1v18.4h-6.1V75.8h5.8v6h0.1c2.2-3.8,7-6.4,12.2-6.4
		C276.3,75.4,282.8,83,282.8,94.3z M276.6,94.3c0-8.2-4.4-13.5-11.1-13.5c-6.5,0-11,5.5-11,13.5c0,8.1,4.4,13.5,11,13.5
		C272.2,107.9,276.6,102.5,276.6,94.3z M325.1,94.3c0,11.3-6.5,18.9-16,18.9c-5.4,0-9.7-2.3-12-6.4h-0.1v18.4h-6.1V75.8h5.8v6h0.1
		c2.2-3.8,7-6.4,12.2-6.4C318.6,75.4,325.1,83,325.1,94.3z M318.9,94.3c0-8.2-4.4-13.5-11.1-13.5c-6.5,0-11,5.5-11,13.5
		c0,8.1,4.4,13.5,11,13.5C314.5,107.9,318.9,102.5,318.9,94.3z M332.3,61.1h6.1v51.8h-6.1V61.1z M379.4,102.3
		c-1.1,6.4-7.6,10.9-15.7,10.9c-10.6,0-17.3-7.3-17.3-18.7c0-11.5,6.7-19,17-19c10.1,0,16.4,7,16.4,18.2V96h-27.1v0.3
		c0,7.1,4.4,11.6,11.1,11.6c4.7,0,8.4-2.2,9.5-5.7C373.4,102.3,379.4,102.3,379.4,102.3z M352.7,91.2h20.8
		c-0.1-6.3-4.2-10.5-10.2-10.5C357.4,80.7,353.1,84.9,352.7,91.2z M425.1,112.9h-6l-13.8-49.6h6.6l10.1,40.5h0.3l11.4-40.5h6.4
		l11.4,40.5h0.3l10.1-40.5h6.6l-13.8,49.6h-6l-11.7-39.4h-0.4L425.1,112.9z M470.7,102.3c0-6.4,5-10.1,14.2-10.7l10.6-0.6v-3.1
		c0-4.6-3.1-7.1-8.7-7.1c-4.4,0-7.6,2.2-8.4,5.7h-5.8c0.2-6.3,6.4-11,14.3-11c8.9,0,14.7,4.7,14.7,12v25.4h-5.8v-6.4h-0.2
		c-2.1,4.1-6.9,6.8-12.2,6.8C475.8,113.2,470.7,108.9,470.7,102.3z M495.4,98.8v-3l-9.9,0.6c-5.7,0.3-8.6,2.4-8.6,6
		c0,3.4,3,5.7,7.8,5.7C490.9,108,495.4,104.1,495.4,98.8z M510.6,61.1h6.1v51.8h-6.1V61.1z M528.2,61.1h6.1v51.8h-6.1V61.1z
		 M575.3,102.3c-1.1,6.4-7.6,10.9-15.7,10.9c-10.6,0-17.3-7.3-17.3-18.7c0-11.5,6.7-19,17-19c10.1,0,16.4,7,16.4,18.2V96h-27.1v0.3
		c0,7.1,4.4,11.6,11.1,11.6c4.7,0,8.4-2.2,9.5-5.7C569.2,102.3,575.3,102.3,575.3,102.3z M548.6,91.2h20.8
		c-0.1-6.3-4.2-10.5-10.2-10.5C553.3,80.7,549,84.9,548.6,91.2z M591.8,67.4v8.4h7.4v4.9h-7.4V103c0,3.4,1.5,5,4.7,5
		c0.7,0,2.2-0.1,2.6-0.2v5.1c-0.7,0.2-2.5,0.3-3.9,0.3c-6.8,0-9.5-2.8-9.5-9.9V80.7h-5.3v-4.9h5.3v-8.4L591.8,67.4L591.8,67.4z
		 M222.8,31.5h-15.1l-3.8,10.6h-5l14-37.2h4.7l14,37.2h-5L222.8,31.5z M209.1,27.6h12.3L215.5,11h-0.4L209.1,27.6z M234.7,28.3
		c0-8.7,4.7-14.4,11.9-14.4c3.9,0,7.3,1.8,8.9,4.9h0.4V3.3h4.5v38.8H256v-4.4h-0.4c-1.8,3.1-5.1,4.9-9.1,4.9
		C239.3,42.6,234.7,37,234.7,28.3z M239.4,28.3c0,6.5,3.1,10.4,8.3,10.4c5.1,0,8.3-4,8.3-10.4c0-6.4-3.2-10.4-8.3-10.4
		C242.5,17.9,239.4,21.8,239.4,28.3z M267.7,28.3c0-8.7,4.7-14.4,11.9-14.4c3.9,0,7.3,1.8,8.9,4.9h0.4V3.3h4.5v38.8h-4.3v-4.4h-0.4
		c-1.8,3.1-5.1,4.9-9.1,4.9C272.4,42.6,267.7,37,267.7,28.3z M272.4,28.3c0,6.5,3.1,10.4,8.3,10.4c5.1,0,8.3-4,8.3-10.4
		c0-6.4-3.2-10.4-8.3-10.4C275.5,17.9,272.4,21.8,272.4,28.3z M323.2,7.4v6.9h6.6v3.7h-6.6v15.7c0,3.3,1.3,4.7,4.2,4.7
		c0.8,0,1.2,0,2-0.1v3.7c-0.9,0.2-1.7,0.3-2.6,0.3c-5.8,0-8.2-2.1-8.2-7.4V18.1H314v-3.7h4.8V7.4H323.2z M334.6,28.3
		c0-8.9,5-14.4,13.1-14.4s13.1,5.4,13.1,14.4c0,8.9-5,14.4-13.1,14.4S334.6,37.2,334.6,28.3z M356,28.3c0-6.6-3-10.4-8.4-10.4
		c-5.4,0-8.4,3.8-8.4,10.4c0,6.6,3,10.4,8.4,10.4C353,38.6,356,34.8,356,28.3z"/>
</g>
</svg>
