<svg width="23" height="23" viewBox="0 0 23 23" fill="none" xmlns="http://www.w3.org/2000/svg">
<g id="chat_3114553 1" clip-path="url(#clip0_843_27596)">
<g id="Group">
<g id="Group_2">
<path id="Vector" d="M2.6523 17.9391C1.88376 17.9391 1.13291 17.7429 0.452436 17.3608C0.10232 17.1805 -0.0332855 16.7294 0.175873 16.3901C0.870811 15.2796 1.12176 13.9222 0.803577 12.6456C0.473785 11.3221 -0.00339753 10.2075 1.8236e-05 8.80649C0.0118596 3.89115 4.10309 -0.0936803 9.01343 0.00167647C13.7562 0.097204 17.6649 4.08408 17.665 8.82813C17.665 15.0239 11.1718 19.3739 5.4394 16.9813C4.64927 17.6015 3.65614 17.9391 2.6523 17.9391ZM1.71843 16.4263C2.79827 16.7617 4.01275 16.4938 4.84545 15.6888C5.05063 15.4904 5.35753 15.4404 5.61497 15.5636C10.5227 17.91 16.2987 14.2322 16.2986 8.82813C16.2986 4.79559 13.0181 1.44888 8.98593 1.3677C4.83054 1.28515 1.37634 4.65059 1.36632 8.8098C1.36308 10.1405 1.88228 11.204 2.16601 12.4646C2.46495 13.7931 2.30748 15.1978 1.71843 16.4263Z" fill="#0A3B64"/>
</g>
<g id="Group_3">
<path id="Vector_2" d="M20.347 23C19.3432 23 18.35 22.6624 17.56 22.0423C14.5115 23.3147 10.8852 22.7352 8.38557 20.5766C8.10001 20.33 8.06847 19.8986 8.31504 19.613C8.56165 19.3275 8.99301 19.2958 9.27857 19.5425C11.4955 21.4571 14.7423 21.8877 17.3844 20.6246C17.6418 20.5014 17.9486 20.5514 18.1539 20.7498C18.9866 21.5547 20.2011 21.8228 21.2809 21.4873C20.5861 20.0379 20.4898 18.3775 21.0283 16.8402C21.0331 16.8264 21.0384 16.8128 21.0441 16.7993C21.4374 15.8722 21.6356 14.8868 21.6331 13.8707C21.6288 12.0793 21.0328 10.4221 19.9096 9.07832C19.6677 8.78877 19.7062 8.35799 19.9957 8.11604C20.2851 7.87403 20.716 7.91263 20.958 8.20212C22.2694 9.77115 22.9944 11.7831 22.9994 13.8674C23.0023 15.0613 22.7707 16.2199 22.311 17.3116C21.8281 18.7094 22.0502 20.206 22.8234 21.4509C23.0328 21.7903 22.8971 22.2415 22.5468 22.4219C21.8665 22.8038 21.1154 23 20.347 23Z" fill="#0A3B64"/>
</g>
<g id="Group_4">
<g id="Group_5">
<path id="Vector_3" d="M8.83244 9.94255C9.42945 9.94255 9.91342 9.45884 9.91342 8.86215C9.91342 8.26545 9.42945 7.78174 8.83244 7.78174C8.23543 7.78174 7.75146 8.26545 7.75146 8.86215C7.75146 9.45884 8.23543 9.94255 8.83244 9.94255Z" fill="#0A3B64"/>
</g>
<g id="Group_6">
<path id="Vector_4" d="M4.84977 9.94255C5.44678 9.94255 5.93075 9.45884 5.93075 8.86215C5.93075 8.26545 5.44678 7.78174 4.84977 7.78174C4.25277 7.78174 3.7688 8.26545 3.7688 8.86215C3.7688 9.45884 4.25277 9.94255 4.84977 9.94255Z" fill="#0A3B64"/>
</g>
<g id="Group_7">
<path id="Vector_5" d="M12.8149 9.94255C13.4119 9.94255 13.8958 9.45884 13.8958 8.86215C13.8958 8.26545 13.4119 7.78174 12.8149 7.78174C12.2179 7.78174 11.7339 8.26545 11.7339 8.86215C11.7339 9.45884 12.2179 9.94255 12.8149 9.94255Z" fill="#0A3B64"/>
</g>
</g>
</g>
</g>
<defs>
<clipPath id="clip0_843_27596">
<rect width="23" height="23" fill="white"/>
</clipPath>
</defs>
</svg>
