<svg width="16" height="10" viewBox="0 0 16 10" fill="none" xmlns="http://www.w3.org/2000/svg">
<path d="M8.00756 9.00792C8.00273 9.00308 7.99614 9.00042 7.9893 9.0004C7.89457 9.00012 7.80083 8.98075 7.71369 8.9434C7.62328 8.90465 7.54197 8.84741 7.475 8.77535L0.725 2.02535C0.425 1.72535 0.425 1.26035 0.725 0.960352C1.025 0.660352 1.49 0.660352 1.79 0.960352L7.30789 6.47824C7.69842 6.86877 8.33158 6.86877 8.72211 6.47824L14.225 0.975352C14.525 0.675352 14.99 0.675352 15.29 0.975352C15.59 1.27535 15.59 1.74035 15.29 2.04035L8.54 8.79035C8.39291 8.93744 8.20256 9.01241 8.02551 9.01527C8.01877 9.01538 8.01233 9.01268 8.00756 9.00792Z" fill="#0A3B64"/>
</svg>
