<svg width="23" height="23" viewBox="0 0 23 23" fill="none" xmlns="http://www.w3.org/2000/svg">
<g id="clock_992700 1" clip-path="url(#clip0_843_27610)">
<g id="Group">
<g id="Group_2">
<path id="Vector" d="M15.5976 13.5309L12.3907 11.1258V6.22649C12.3907 5.73388 11.9925 5.33569 11.4999 5.33569C11.0073 5.33569 10.6091 5.73388 10.6091 6.22649V11.5712C10.6091 11.8518 10.741 12.1164 10.9655 12.2838L14.5286 14.9562C14.6889 15.0765 14.876 15.1344 15.0621 15.1344C15.3338 15.1344 15.6011 15.0123 15.7757 14.7771C16.0715 14.3843 15.9913 13.8257 15.5976 13.5309Z" fill="#0A3B64"/>
</g>
</g>
<g id="Group_3">
<g id="Group_4">
<path id="Vector_2" d="M11.5 0C5.15851 0 0 5.15851 0 11.5C0 17.8415 5.15851 23 11.5 23C17.8415 23 23 17.8415 23 11.5C23 5.15851 17.8415 0 11.5 0ZM11.5 21.2184C6.14194 21.2184 1.78156 16.8581 1.78156 11.5C1.78156 6.14194 6.14194 1.78156 11.5 1.78156C16.859 1.78156 21.2184 6.14194 21.2184 11.5C21.2184 16.8581 16.8581 21.2184 11.5 21.2184Z" fill="#0A3B64"/>
</g>
</g>
</g>
<defs>
<clipPath id="clip0_843_27610">
<rect width="23" height="23" fill="white"/>
</clipPath>
</defs>
</svg>
