<svg width="40" height="40" viewBox="0 0 40 40" fill="none" xmlns="http://www.w3.org/2000/svg">
<g id="house (2) 2" clip-path="url(#clip0_843_27499)">
<path id="Vector" d="M16.3242 17.9556H18.8587V14.7375H21.2025V17.9556H23.7372V12.1185L20.0193 9.5498L16.3242 12.1102V17.9556Z" fill="#0A3B64"/>
<path id="Vector_2" d="M20.079 0.000305176L20.0284 0C11.828 0 5.15625 6.67236 5.15625 14.874C5.15625 19.3707 7.45453 22.8775 10.0153 26.3699L20.0088 40L30.0455 26.3699C32.6062 22.8778 34.9045 19.3707 34.9045 14.8743C34.9045 6.68884 28.2587 0.0262452 20.079 0.000305176ZM27.7899 14.9185L26.0806 13.7375V20.2994H13.9801V13.7341L12.272 14.9176L10.9372 12.9913L20.0168 6.69983L29.122 12.9904L27.7899 14.9185Z" fill="#0A3B64"/>
</g>
<defs>
<clipPath id="clip0_843_27499">
<rect width="40" height="40" fill="white"/>
</clipPath>
</defs>
</svg>
