<svg width="40" height="40" viewBox="0 0 40 40" fill="none" xmlns="http://www.w3.org/2000/svg">
<g id="parking_1017088 1">
<g id="Group">
<g id="Group_2">
<path id="Vector" d="M20 7.10938C15.4773 7.10938 11.7969 10.7898 11.7969 15.3125C11.7969 19.8352 15.4773 23.5156 20 23.5156C24.5227 23.5156 28.2031 19.8352 28.2031 15.3125C28.2031 10.7898 24.5227 7.10938 20 7.10938ZM21.1719 16.4844H18.8281V20C18.8281 20.6477 18.304 21.1719 17.6562 21.1719C17.0085 21.1719 16.4844 20.6477 16.4844 20V10.625C16.4844 9.97727 17.0085 9.45312 17.6562 9.45312H21.1719C23.1105 9.45312 24.6875 11.0302 24.6875 12.9688C24.6875 14.9073 23.1105 16.4844 21.1719 16.4844Z" fill="#0A3B64"/>
</g>
</g>
<g id="Group_3">
<g id="Group_4">
<path id="Vector_2" d="M21.1719 11.7969H18.8281V14.1406H21.1719C21.8184 14.1406 22.3438 13.6153 22.3438 12.9688C22.3438 12.3222 21.8184 11.7969 21.1719 11.7969Z" fill="#0A3B64"/>
</g>
</g>
<g id="Group_5">
<g id="Group_6">
<path id="Vector_3" d="M20 0C11.6 0 4.76562 6.9125 4.76562 15.3125C4.76562 18.6279 5.81617 21.7819 7.80406 24.4334L19.0627 39.5308C19.2836 39.826 19.6315 40 20 40C20.3685 40 20.7164 39.826 20.9373 39.5308L32.1959 24.4334C34.1838 21.7819 35.2344 18.6279 35.2344 15.3125C35.2344 6.9125 28.4 0 20 0ZM20 25.8594C14.1841 25.8594 9.45312 21.1284 9.45312 15.3125C9.45312 9.49664 14.1841 4.76562 20 4.76562C25.8159 4.76562 30.5469 9.49664 30.5469 15.3125C30.5469 21.1284 25.8159 25.8594 20 25.8594Z" fill="#0A3B64"/>
</g>
</g>
</g>
</svg>
