<svg width="12" height="12" viewBox="0 0 12 12" fill="none" xmlns="http://www.w3.org/2000/svg">
<path fill-rule="evenodd" clip-rule="evenodd" d="M11.5 5.99644C11.5 6.53139 11.0665 6.96515 10.5316 6.96553L1.473 6.97197C0.935739 6.97235 0.5 6.53692 0.5 5.99965C0.5 5.46266 0.935318 5.02734 1.47231 5.02734H10.5309C11.0661 5.02734 11.5 5.46122 11.5 5.99644Z" fill="#0D6EFD"/>
<path fill-rule="evenodd" clip-rule="evenodd" d="M5.99644 0.5C6.53139 0.5 6.96515 0.933459 6.96553 1.46841L6.97197 10.527C6.97235 11.0643 6.53692 11.5 5.99965 11.5C5.46266 11.5 5.02734 11.0647 5.02734 10.5277V1.46909C5.02734 0.933878 5.46122 0.5 5.99644 0.5Z" fill="#0D6EFD"/>
</svg>
