<svg width="48" height="48" viewBox="0 0 48 48" fill="none" xmlns="http://www.w3.org/2000/svg">
<rect width="47.8966" height="47.8966" rx="9.03709" fill="white"/>
<path d="M35.2861 11.5522C33.3013 9.22861 30.6504 7.57097 27.6924 6.80364C24.7344 6.03632 21.6121 6.19637 18.748 7.26213C15.8839 8.32789 13.4165 10.2479 11.6796 12.7622C9.94279 15.2766 9.0204 18.2639 9.03734 21.3198C9.05427 24.3756 10.0097 27.3525 11.7743 29.8475C13.5389 32.3424 16.0275 34.235 18.9032 35.2689C21.7789 36.3029 24.9028 36.4283 27.8522 35.6282C30.8015 34.8282 33.4338 33.1412 35.3928 30.7958L33.8544 29.511C32.1588 31.5411 29.8803 33.0013 27.3274 33.6938C24.7745 34.3863 22.0705 34.2778 19.5814 33.3828C17.0922 32.4878 14.9381 30.8497 13.4107 28.6901C11.8833 26.5305 11.0563 23.9538 11.0416 21.3087C11.027 18.6635 11.8254 16.0778 13.3288 13.9014C14.8321 11.725 16.9679 10.0631 19.447 9.1406C21.9261 8.2181 24.6287 8.07956 27.1892 8.74375C29.7496 9.40793 32.0441 10.8428 33.7621 12.854L35.2861 11.5522Z" fill="#458DB4"/>
<g clip-path="url(#clip0_1185_3354)">
<path d="M26.3956 18.6459H23.948M21.5005 23.5697H23.948M23.948 18.6459H22.7962C22.0806 18.6459 21.5005 19.226 21.5005 19.9416V19.9416C21.5005 20.6572 22.0806 21.2374 22.7962 21.2374H25.2294C25.8735 21.2374 26.3956 21.7595 26.3956 22.4036V22.4036C26.3956 23.0476 25.8735 23.5697 25.2294 23.5697H23.948M23.948 18.6459V16.8318M23.948 23.5697V25.643" stroke="#458DB4" stroke-width="1.80742" stroke-linecap="round" stroke-linejoin="round"/>
</g>
<defs>
<clipPath id="clip0_1185_3354">
<rect width="11.7482" height="11.7482" fill="white" transform="translate(18.0742 15.363)"/>
</clipPath>
</defs>
</svg>
