<svg width="48" height="48" viewBox="0 0 48 48" fill="none" xmlns="http://www.w3.org/2000/svg">
<rect width="47.8966" height="47.8966" rx="9.03709" fill="white"/>
<path d="M35.837 13.7457C33.8123 11.3755 31.1083 9.68457 28.0909 8.90185C25.0736 8.11913 21.8885 8.28239 18.967 9.36954C16.0455 10.4567 13.5285 12.4152 11.7568 14.98C9.98513 17.5448 9.04424 20.5921 9.06151 23.7093C9.07879 26.8264 10.0534 29.8631 11.8534 32.4081C13.6535 34.9531 16.192 36.8836 19.1254 37.9383C22.0588 38.993 25.2454 39.1209 28.2539 38.3048C31.2624 37.4887 33.9475 35.7679 35.9458 33.3754L34.3766 32.0648C32.6469 34.1357 30.3227 35.6252 27.7186 36.3316C25.1145 37.038 22.3562 36.9273 19.8171 36.0143C17.278 35.1014 15.0807 33.4304 13.5226 31.2275C11.9646 29.0246 11.121 26.3961 11.106 23.6979C11.0911 20.9997 11.9055 18.3621 13.439 16.142C14.9726 13.922 17.1512 12.2267 19.6801 11.2857C22.2089 10.3447 24.9658 10.2034 27.5776 10.8809C30.1893 11.5584 32.5299 13.022 34.2824 15.0736L35.837 13.7457Z" fill="#458DB4"/>
<g clip-path="url(#clip0_1185_3326)">
<path d="M32.2581 18.743C32.2581 21.2848 31.15 23.1314 31.1034 23.2084C31.0096 23.3618 30.8471 23.4459 30.6795 23.4459C30.5915 23.4459 30.5028 23.4226 30.4225 23.3741C30.1882 23.2317 30.1131 22.9268 30.2549 22.6925C30.2652 22.6757 31.2652 20.9948 31.2652 18.743C31.2652 17.4589 30.4303 16.5268 29.2795 16.5268C28.1843 16.5268 27.2937 17.4174 27.2937 18.5132C27.2937 18.9799 27.5196 20.1657 27.6063 20.5831C27.6626 20.8518 27.4898 21.1145 27.2212 21.1708C26.9526 21.2259 26.6898 21.0543 26.6342 20.7864C26.5999 20.6226 26.2995 19.167 26.2995 18.5132C26.2995 16.8705 27.6361 15.5339 29.2795 15.5339C30.9772 15.5339 32.2581 16.9132 32.2581 18.743ZM29.3636 19.5242C29.561 21.1741 29.8471 24.389 29.5183 24.7165L22.3041 31.9314C21.8607 32.3754 21.1403 32.3754 20.6963 31.9307L15.8723 27.1074C15.4283 26.6641 15.4283 25.9437 15.8723 25.4997L23.0872 18.2854C23.2018 18.1708 24.4497 18.1657 25.8529 18.2388C25.8452 18.3314 25.8251 18.4187 25.8251 18.5132C25.8251 18.8731 25.9047 19.431 25.9882 19.9217C25.8413 20.1398 25.7552 20.4019 25.7552 20.6848C25.7552 21.4382 26.3662 22.0492 27.1196 22.0492C27.873 22.0492 28.484 21.4382 28.484 20.6848C28.484 20.2207 28.2516 19.8116 27.8976 19.5657C27.8251 19.1339 27.7669 18.7171 27.7669 18.5132C27.7669 18.4692 27.7759 18.4284 27.7798 18.3851C27.9526 18.4032 28.1228 18.422 28.284 18.442C29.2374 18.5592 29.2471 18.5572 29.3636 19.5242ZM25.5183 24.9236C25.4063 24.6123 25.2199 24.2388 24.8154 23.809L25.363 23.2608L24.7533 22.6518L24.1623 23.2433C23.3714 22.7016 22.5558 22.7456 22.0024 23.299C21.3992 23.9022 21.5416 24.6679 21.9843 25.5579C22.2885 26.1741 22.3442 26.5288 22.1079 26.765C21.8652 27.0078 21.4736 26.9023 21.1183 26.5476C20.7144 26.1437 20.4775 25.6446 20.3597 25.2401L19.4445 25.7825C19.5506 26.1489 19.8367 26.6712 20.2406 27.101L19.6438 27.6984L20.2529 28.3081L20.8943 27.6673C21.7403 28.2641 22.5934 28.1838 23.1468 27.6304C23.7131 27.0628 23.763 26.4285 23.2775 25.4207C22.9409 24.6984 22.86 24.3437 23.0594 24.145C23.2342 23.9702 23.5448 23.9204 23.9494 24.3249C24.3979 24.7734 24.5468 25.209 24.6277 25.4395L25.5183 24.9236Z" fill="#458DB4"/>
</g>
<defs>
<clipPath id="clip0_1185_3326">
<rect width="16.7301" height="16.7301" fill="white" transform="translate(15.5339 15.5339)"/>
</clipPath>
</defs>
</svg>
