<?xml version="1.0" encoding="UTF-8"?>
<!DOCTYPE svg PUBLIC "-//W3C//DTD SVG 1.1//EN" "http://www.w3.org/Graphics/SVG/1.1/DTD/svg11.dtd">
<!-- Creator: CorelDRAW 2021 (64-Bit) -->
<svg xmlns="http://www.w3.org/2000/svg" xml:space="preserve" width="2.7092mm" height="2.7092mm" version="1.1" shape-rendering="geometricPrecision" text-rendering="geometricPrecision" image-rendering="optimizeQuality" fill-rule="evenodd" clip-rule="evenodd"
viewBox="0 0 270.92 270.92"
 xmlns:xlink="http://www.w3.org/1999/xlink"
 xmlns:xodm="http://www.corel.com/coreldraw/odm/2003">
 <g id="Слой_x0020_1">
  <metadata id="CorelCorpID_0Corel-Layer"/>
  <path fill="none" stroke="#001489" stroke-width="16.93" stroke-miterlimit="22.9256" d="M135.46 8.46c70.14,0 127,56.86 127,127 0,70.14 -56.86,127 -127,127 -70.14,0 -127,-56.86 -127,-127 0,-70.14 56.86,-127 127,-127zm0 25.4c56.11,0 101.6,45.49 101.6,101.6 0,56.11 -45.49,101.6 -101.6,101.6 -56.11,0 -101.6,-45.49 -101.6,-101.6 0,-56.11 45.49,-101.6 101.6,-101.6zm0 84.67c9.35,0 16.93,7.58 16.93,16.93 0,9.35 -7.58,16.93 -16.93,16.93 -9.35,0 -16.93,-7.58 -16.93,-16.93 0,-9.35 7.58,-16.93 16.93,-16.93z"/>
 </g>
</svg>
