<svg width="48" height="49" viewBox="0 0 48 49" fill="none" xmlns="http://www.w3.org/2000/svg">
<rect y="0.176758" width="47.8966" height="47.8966" rx="9.03709" fill="white"/>
<g clip-path="url(#clip0_1185_3363)">
<path d="M32.4255 26.1289L31.312 25.486C31.4106 25.0065 31.4575 24.5634 31.4575 24.1248C31.4575 23.6863 31.4106 23.2432 31.3121 22.7636L32.4256 22.1207C32.6172 22.0101 32.7571 21.8278 32.8144 21.6142C32.8716 21.4004 32.8416 21.1726 32.731 20.981L31.0623 18.0908C30.8318 17.6917 30.3217 17.555 29.9226 17.7854L28.8192 18.4225C28.1275 17.8358 27.3249 17.3773 26.4515 17.0701V15.7814C26.4515 15.3206 26.0779 14.947 25.6171 14.947H22.2797C21.8189 14.947 21.4454 15.3206 21.4454 15.7814V17.0701C20.572 17.3773 19.7692 17.8358 19.0777 18.4225L17.9743 17.7854C17.5752 17.5549 17.0649 17.6917 16.8345 18.0908L15.1659 20.981C15.0552 21.1726 15.0252 21.4004 15.0825 21.6142C15.1398 21.8279 15.2796 22.0101 15.4712 22.1207L16.5847 22.7636C16.4861 23.2432 16.4392 23.6863 16.4392 24.1248C16.4392 24.5634 16.4861 25.0065 16.5846 25.486L15.4711 26.1289C15.2795 26.2396 15.1397 26.4219 15.0824 26.6355C15.0251 26.8493 15.0551 27.077 15.1657 27.2687L16.8344 30.1589C17.0649 30.558 17.5752 30.6948 17.9742 30.4643L19.0776 29.8272C19.7692 30.4139 20.5719 30.8724 21.4453 31.1796V32.4683C21.4453 32.9291 21.8188 33.3027 22.2796 33.3027H25.617C26.0778 33.3027 26.4513 32.9291 26.4513 32.4683V31.1796C27.3247 30.8724 28.1275 30.4139 28.8191 29.8272L29.9225 30.4643C30.3215 30.6947 30.8317 30.5579 31.0622 30.1589L32.7309 27.2687C32.8415 27.077 32.8715 26.8493 32.8142 26.6355C32.757 26.4218 32.6172 26.2396 32.4255 26.1289ZM23.9484 26.6279C22.5682 26.6279 21.4453 25.505 21.4453 24.1248C21.4453 22.7447 22.5682 21.6218 23.9484 21.6218C25.3285 21.6218 26.4514 22.7447 26.4514 24.1248C26.4514 25.505 25.3285 26.6279 23.9484 26.6279Z" fill="#458DB4"/>
<path d="M35.3593 15.6016L34.1794 12.0618C34.0336 11.6246 33.5611 11.3883 33.124 11.5341C32.6868 11.6798 32.4506 12.1523 32.5963 12.5895L32.6966 12.8903C31.9479 12.3205 31.1411 11.8182 30.2917 11.3969C28.2983 10.4081 26.1048 9.8855 23.9483 9.8855C20.1653 9.8855 16.5952 11.3723 13.8954 14.0722C11.1955 16.772 9.70874 20.3421 9.70874 24.125C9.70874 25.8721 10.0758 27.662 10.7996 29.445C10.9312 29.7692 11.2434 29.9657 11.5729 29.9657C11.6774 29.9657 11.7837 29.9459 11.8865 29.9042C12.3135 29.7309 12.519 29.2442 12.3457 28.8173C11.7032 27.2346 11.3774 25.6559 11.3774 24.125C11.3774 17.1934 17.0167 11.5542 23.9483 11.5542C26.4925 11.5542 29.0608 12.4006 31.1947 13.8684C30.7868 13.7847 30.3714 14.0167 30.2364 14.4216C30.0907 14.8587 30.327 15.3312 30.7641 15.477L34.304 16.6569C34.6025 16.7564 34.9334 16.6798 35.1578 16.4554C35.3812 16.2319 35.4592 15.9014 35.3593 15.6016Z" fill="#458DB4"/>
<path d="M37.0973 18.8049C36.9239 18.3778 36.4372 18.1724 36.0103 18.3456C35.5834 18.519 35.3778 19.0056 35.5511 19.4326C36.1937 21.0152 36.5194 22.5939 36.5194 24.1248C36.5194 31.0564 30.8802 36.6957 23.9486 36.6957C21.4044 36.6957 18.836 35.8493 16.7021 34.3814C17.11 34.4651 17.5254 34.2332 17.6604 33.8283C17.8061 33.3912 17.5699 32.9186 17.1327 32.7729L13.5929 31.5929C13.2932 31.4929 12.9625 31.5709 12.7391 31.7945C12.5156 32.018 12.4375 32.3485 12.5375 32.6483L13.7174 36.1882C13.834 36.5378 14.1594 36.759 14.5089 36.7589C14.5963 36.7589 14.6853 36.7451 14.7728 36.7159C15.2099 36.5702 15.4462 36.0977 15.3005 35.6605L15.2002 35.3596C15.9489 35.9295 16.7557 36.4317 17.6051 36.8531C19.5986 37.8417 21.7921 38.3644 23.9486 38.3644C27.7315 38.3644 31.3016 36.8775 34.0014 34.1777C36.7013 31.4779 38.1881 27.9077 38.1881 24.1248C38.1881 22.3777 37.821 20.5878 37.0973 18.8049Z" fill="#458DB4"/>
</g>
<defs>
<clipPath id="clip0_1185_3363">
<rect width="28.479" height="28.479" fill="white" transform="translate(9.70874 9.8855)"/>
</clipPath>
</defs>
</svg>
