<svg width="40" height="40" viewBox="0 0 40 40" fill="none" xmlns="http://www.w3.org/2000/svg">
<g id="waze 2" clip-path="url(#clip0_843_27517)">
<path id="Vector" d="M8.38655 32.7084C7.43489 35.6117 9.71989 38.5817 12.7382 38.3184C14.8799 38.1301 16.4999 36.3501 16.5832 34.2301C16.8366 29.3284 9.91322 28.0067 8.38655 32.7084ZM13.6066 34.0067C13.6066 34.7717 13.0766 35.3951 12.4266 35.3951C11.5732 35.3951 11.0449 34.3734 11.3166 33.5434C11.7482 32.1134 13.5482 32.4351 13.6066 33.9501V34.0067Z" fill="#0A3B64"/>
<path id="Vector_2" d="M30.7407 32.5184C30.0907 30.7851 28.3624 29.6184 26.449 29.7884C24.0657 29.9967 22.3957 32.1667 22.6174 34.4201C22.8174 36.7717 24.8557 38.5184 27.169 38.3151C29.9557 38.0734 31.7474 35.1801 30.7407 32.5184ZM26.859 35.3951C25.2857 35.3951 25.2924 32.6234 26.859 32.6234C28.4157 32.6234 28.4174 35.3951 26.859 35.3951Z" fill="#0A3B64"/>
<path id="Vector_3" d="M11.0283 5.77005C1.44326 13.475 7.98493 23.5234 2.09826 23.5234C0.363259 23.5234 -0.613408 25.5384 0.421592 26.9367C2.26826 29.4284 4.59826 31.0834 7.09159 32.1834C9.19659 25.995 18.2849 27.7867 17.9733 34.2817C18.5649 34.2967 20.6283 34.2984 21.2216 34.2967C21.0766 31.0267 23.6166 28.355 26.8199 28.355C29.0616 28.355 31.1066 29.75 31.9716 31.8417C35.1833 29.9067 37.9849 26.79 39.1799 23.1017C44.3166 7.28838 24.6116 -5.13162 11.0283 5.77005ZM26.6499 12.055C27.7649 12.055 28.6649 12.9717 28.6649 14.105C28.6649 15.2334 27.7633 16.15 26.6499 16.15C25.5399 16.15 24.6349 15.2334 24.6349 14.105C24.6349 12.97 25.5399 12.055 26.6499 12.055ZM17.0333 12.375C18.1433 12.375 19.0483 13.2917 19.0483 14.42C19.0483 15.5534 18.1433 16.47 17.0333 16.47C15.9233 16.47 15.0183 15.5534 15.0183 14.42C15.0183 13.2917 15.9233 12.375 17.0333 12.375ZM29.2099 20.2617C28.5916 22.9017 25.8749 25.2967 22.0816 25.3984C18.8016 25.62 15.1466 23.1184 14.7716 19.7834C14.6049 18.3834 16.6949 18.14 16.8516 19.5384C17.1066 21.81 19.7766 23.33 22.0249 23.2684C24.8849 23.1934 26.7749 21.45 27.1649 19.77C27.2999 19.1984 27.8616 18.845 28.4283 18.9767C28.9916 19.1134 29.3399 19.685 29.2099 20.2617Z" fill="#0A3B64"/>
</g>
<defs>
<clipPath id="clip0_843_27517">
<rect width="40" height="40" fill="white"/>
</clipPath>
</defs>
</svg>
